<svg width="113.949" height="32.002" viewBox="0 0 30.149 8.467" version="1.1" id="svg5" xmlns="http://www.w3.org/2000/svg" xmlns:svg="http://www.w3.org/2000/svg"><g id="layer1" transform="translate(-84.519 -101.05)" fill="#464a58" stroke-width=".265"><path d="M96.685 107.515c1.429 0 2.445-.972 2.445-2.33 0-1.366-1.016-2.337-2.445-2.337-1.429 0-2.445.977-2.445 2.336 0 1.353 1.016 2.33 2.445 2.33zm0-1.137c-.673 0-1.175-.508-1.175-1.194 0-.692.502-1.2 1.175-1.2.68 0 1.169.502 1.169 1.2 0 .692-.49 1.194-1.169 1.194zm5.303-2.35h-.807v-.228c0-.178.102-.28.28-.28h.52v-.907h-.825c-.724 0-1.105.4-1.105 1.092v.324h-.584l.006.927h.565v2.444h1.181v-2.444h.769zm2.74 0h-.806v-.228c0-.178.102-.28.28-.28h.52v-.907h-.825c-.724 0-1.105.4-1.105 1.092v.324h-.584l.006.927h.565v2.444h1.18v-2.444h.77zm.455-.482h1.169v-1.003h-1.169zm-.006 3.854h1.182v-3.429h-1.182zm3.618.115c.965 0 1.702-.629 1.835-1.556h-1.162a.693.693 0 01-.673.502c-.412 0-.71-.324-.71-.775 0-.445.298-.762.71-.762a.69.69 0 01.667.464h1.156c-.134-.915-.851-1.518-1.816-1.518-1.112 0-1.899.756-1.899 1.816s.794 1.829 1.892 1.829zm5.872-1.86c0-1.004-.762-1.791-1.867-1.791-1.079 0-1.86.774-1.86 1.822s.787 1.829 1.86 1.829c.858 0 1.556-.49 1.798-1.27h-1.182c-.107.203-.342.324-.615.324-.375 0-.623-.204-.699-.597h2.546c.013-.108.02-.21.02-.318zm-1.867-.864c.356 0 .604.184.705.527h-1.384c.095-.343.337-.527.68-.527z" id="path9"/><path d="M91.273 101.763l-2.408-.706a.164.164 0 00-.113.007l-4.127 1.764a.176.176 0 00-.106.163v4.586c0 .097.076.176.17.177a.174.174 0 00-.17.177c0 .076.048.143.118.167l4.127 1.41a.168.168 0 00.101.003l2.408-.706a.176.176 0 00.125-.17v-6.702a.176.176 0 00-.125-.17zm-6.505 5.972l1.032-.53a.177.177 0 00.095-.157v-3.743l3.095-.794v5.919l-4.273-.675a.2.2 0 00-.024-.002.174.174 0 00.075-.018z" id="path11"/></g></svg> 0,-0.1778 0.1016,-0.2794 0.2794,-0.2794 h 0.5207 v -0.90805 h -0.8255 c -0.7239,0 -1.1049,0.40005 -1.1049,1.0922 v 0.32385 h -0.584202 l 0.0063,0.9271 h 0.565152 v 2.44475 h 1.1811 v -2.44475 h 0.76835 z m 2.7409,0 h -0.80645 v -0.2286 c 0,-0.1778 0.1016,-0.2794 0.2794,-0.2794 h 0.5207 v -0.90805 h -0.8255 c -0.7239,0 -1.1049,0.40005 -1.1049,1.0922 v 0.32385 h -0.5842 l 0.006,0.9271 h 0.56515 v 2.44475 h 1.1811 v -2.44475 h 0.76835 z m 0.45492,-0.4826 h 1.1684 v -1.0033 h -1.1684 z m -0.006,3.85445 h 1.1811 v -3.429 h -1.1811 z m 3.61781,0.1143 c 0.9652,0 1.7018,-0.62865 1.83515,-1.55575 h -1.16205 c -0.0952,0.3048 -0.3556,0.50165 -0.6731,0.50165 -0.41275,0 -0.7112,-0.32385 -0.7112,-0.7747 0,-0.4445 0.29845,-0.762 0.7112,-0.762 0.31115,0 0.5715,0.18415 0.66675,0.46355 h 1.1557 c -0.13335,-0.9144 -0.8509,-1.51765 -1.8161,-1.51765 -1.11125,0 -1.89865,0.75565 -1.89865,1.8161 0,1.06045 0.79375,1.8288 1.8923,1.8288 z m 5.87213,-1.86055 c 0,-1.0033 -0.762,-1.7907 -1.8669,-1.7907 -1.0795,0 -1.86057,0.7747 -1.86057,1.82245 0,1.04775 0.78742,1.8288 1.86057,1.8288 0.85725,0 1.55575,-0.48895 1.79705,-1.27 h -1.1811 c -0.10795,0.2032 -0.3429,0.32385 -0.61595,0.32385 -0.37465,0 -0.6223,-0.2032 -0.6985,-0.5969 h 2.54635 c 0.0127,-0.10795 0.0191,-0.20955 0.0191,-0.3175 z m -1.8669,-0.8636 c 0.3556,0 0.60325,0.18415 0.70485,0.52705 h -1.3843 c 0.0953,-0.3429 0.33655,-0.52705 0.67945,-0.52705 z"
       fill="#464a58"
       id="path9"
       style="stroke-width:0.264583" />
    <path
       d="m 91.272886,101.7629 -2.407471,-0.70556 c -0.03749,-0.011 -0.0775,-0.009 -0.113506,0.007 l -4.127105,1.76394 c -0.06392,0.0274 -0.105548,0.0915 -0.10558,0.16264 v 4.58622 c 0,0.0967 0.07595,0.17542 0.170243,0.1764 -0.09497,6.1e-4 -0.171484,0.0801 -0.170888,0.17748 4.52e-4,0.0758 0.04807,0.14283 0.118268,0.16648 l 4.127101,1.41116 c 0.01757,0.006 0.0359,0.009 0.05434,0.009 0.01595,-1.1e-4 0.0318,-0.002 0.04712,-0.007 l 2.407471,-0.70557 c 0.07379,-0.0216 0.124724,-0.0906 0.124857,-0.16936 v -6.70294 c -1.33e-4,-0.0787 -0.05107,-0.14777 -0.124857,-0.16934 z m -6.504665,5.97164 1.031777,-0.52917 c 0.05818,-0.0299 0.09493,-0.0909 0.09493,-0.15772 v -3.74272 l 3.095323,-0.79377 v 5.91836 l -4.272937,-0.67419 c -0.0081,-0.001 -0.01623,-0.002 -0.02442,-0.002 0.02616,-3.4e-4 0.05191,-0.007 0.07534,-0.0187 z"
       fill="#464a58"
       id="path11"
       style="stroke-width:0.264583" />
  </g>
</svg>
