<?xml version="1.0" encoding="UTF-8" standalone="no"?>
<!-- Created with Inkscape (http://www.inkscape.org/) -->

<svg
   width="41.125111mm"
   height="7.1432533mm"
   viewBox="0 0 41.125111 7.1432533"
   version="1.1"
   id="svg915"
   inkscape:version="1.1.1 (eb90963e84, 2021-10-02)"
   sodipodi:docname="windows.svg"
   xmlns:inkscape="http://www.inkscape.org/namespaces/inkscape"
   xmlns:sodipodi="http://sodipodi.sourceforge.net/DTD/sodipodi-0.dtd"
   xmlns="http://www.w3.org/2000/svg"
   xmlns:svg="http://www.w3.org/2000/svg">
  <sodipodi:namedview
     id="namedview917"
     pagecolor="#ffffff"
     bordercolor="#666666"
     borderopacity="1.0"
     inkscape:pageshadow="2"
     inkscape:pageopacity="0.0"
     inkscape:pagecheckerboard="0"
     inkscape:document-units="mm"
     showgrid="false"
     fit-margin-top="0"
     fit-margin-left="0"
     fit-margin-right="0"
     fit-margin-bottom="0"
     inkscape:zoom="4.2079202"
     inkscape:cx="17.467061"
     inkscape:cy="85.315305"
     inkscape:window-width="1920"
     inkscape:window-height="1013"
     inkscape:window-x="0"
     inkscape:window-y="30"
     inkscape:window-maximized="1"
     inkscape:current-layer="layer1" />
  <defs
     id="defs912">
    <clipPath
       id="clip0_149_6857">
      <rect
         width="29"
         height="27"
         fill="#ffffff"
         id="rect931"
         x="0"
         y="0" />
    </clipPath>
  </defs>
  <g
     inkscape:label="Layer 1"
     inkscape:groupmode="layer"
     id="layer1"
     transform="translate(-143.05441,-125.54334)">
    <g
       clip-path="url(#clip0_149_6857)"
       id="g927"
       transform="matrix(0.26458333,0,0,0.26458333,143.05441,125.54308)">
      <path
         d="M 11.7004,24.6657 0,23.0888 v -8.7387 h 11.7004 z"
         fill="#464a58"
         id="path919" />
      <path
         d="M 29.0001,12.651 H 13.5681 L 13.5736,2.08066 29.0001,9.76562e-4 Z"
         fill="#464a58"
         id="path921" />
      <path
         d="M 29,26.9991 13.5625,24.9177 13.5806,14.3516 H 29 Z"
         fill="#464a58"
         id="path923" />
      <path
         d="M 11.7004,12.6507 H 0 V 3.91117 L 11.7004,2.3335 Z"
         fill="#464a58"
         id="path925" />
    </g>
    <path
       d="m 159.75279,126.65433 -0.70485,2.5654 -1.0795,-2.54 h -0.4191 l -1.06045,2.54 -0.7239,-2.5654 h -1.31445 l 1.39065,4.445 h 1.0795 l 0.8382,-2.13995 0.8509,2.13995 h 1.0795 l 1.3716,-4.445 z m 1.71961,0.59055 h 1.1684 v -1.0033 h -1.1684 z m -0.006,3.85445 h 1.1811 v -3.429 h -1.1811 z m 3.9925,-3.52425 c -0.4445,0 -0.8255,0.1651 -1.0795,0.45085 l -0.15875,-0.3556 h -0.83185 v 3.429 h 1.1811 v -1.8288 c 0,-0.43815 0.20955,-0.69215 0.57785,-0.69215 0.29845,0 0.45085,0.19685 0.45085,0.5969 v 1.92405 h 1.1811 v -2.08915 c 0,-0.86995 -0.52705,-1.4351 -1.3208,-1.4351 z m 4.47387,-1.143 v 1.36525 c -0.2413,-0.1524 -0.53348,-0.23495 -0.85098,-0.23495 -1.04775,0 -1.79705,0.762 -1.79705,1.82245 0,1.0668 0.7493,1.83515 1.79705,1.83515 0.40005,0 0.75573,-0.1397 1.03513,-0.37465 l 0.1143,0.254 h 0.86995 v -4.66725 z m -0.69223,3.74015 c -0.43815,0 -0.76835,-0.33655 -0.76835,-0.78105 0,-0.45085 0.3302,-0.7874 0.76835,-0.7874 0.44458,0 0.76843,0.33655 0.76843,0.7874 0,0.4445 -0.32385,0.78105 -0.76843,0.78105 z m 4.32125,1.0414 c 1.1176,0 1.92405,-0.76835 1.92405,-1.8288 0,-1.06045 -0.80645,-1.82245 -1.92405,-1.82245 -1.1176,0 -1.9177,0.762 -1.9177,1.82245 0,1.06045 0.8001,1.8288 1.9177,1.8288 z m 0,-1.06045 c -0.42545,0 -0.7366,-0.31115 -0.7366,-0.762 0,-0.4572 0.31115,-0.76835 0.7366,-0.76835 0.4318,0 0.74295,0.3175 0.74295,0.76835 0,0.45085 -0.31115,0.762 -0.74295,0.762 z m 6.26454,-2.48285 -0.508,1.82245 -0.85725,-1.80975 h -0.3175 l -0.8128,1.7907 -0.51435,-1.8034 h -1.23825 l 1.1176,3.429 h 0.9525 l 0.66675,-1.53035 0.6731,1.53035 h 0.9525 l 1.0922,-3.429 z m 2.83581,3.5433 c 0.9144,0 1.51738,-0.4699 1.51738,-1.18745 0,-0.8636 -0.71728,-0.9779 -1.26338,-1.07315 -0.32385,-0.0572 -0.5842,-0.10795 -0.5842,-0.29845 0,-0.15875 0.127,-0.254 0.31723,-0.254 0.20982,0 0.35587,0.1016 0.35587,0.3175 h 1.11125 c -0.0127,-0.69215 -0.5842,-1.1557 -1.45415,-1.1557 -0.8763,0 -1.46685,0.4445 -1.46685,1.1303 0,0.83185 0.70485,0.9906 1.23825,1.0795 0.3302,0.0508 0.59055,0.10795 0.59055,0.3048 0,0.1778 -0.1651,0.2667 -0.33655,0.2667 -0.22225,0 -0.40005,-0.1143 -0.40005,-0.3683 h -1.13665 c 0.0127,0.74295 0.57785,1.23825 1.5113,1.23825 z"
       fill="#464a58"
       id="path929"
       style="stroke-width:0.264583" />
  </g>
</svg>
